1.9Hzlow3min_grf.mot
version=1
nRows=22
nColumns 19
inDegrees=yes
endheader
time	1_ground_force_vx	1_ground_force_vy	1_ground_force_vz	1_ground_force_px	1_ground_force_py	1_ground_force_pz	1_ground_torque_x	1_ground_torque_y	1_ground_torque_z	2_ground_force_vx	2_ground_force_vy	2_ground_force_vz	2_ground_force_px	2_ground_force_py	2_ground_force_pz	2_ground_torque_x	2_ground_torque_y	2_ground_torque_z
            1.253500	            0.228721	            2.704029	            0.011026	           -0.233013	            0.005581	           -0.255695	            0.035832	           -0.009131	            0.009549	            0.421752	            0.000686	            0.234461	           -0.232311	            0.006130	           -0.833667	           -0.300265	           -0.104460	           -0.169895
            1.254000	            0.229827	            2.882329	            0.470358	           -0.233013	            0.005581	           -0.255695	            0.110286	           -0.166641	            0.102673	            0.842716	            0.186524	            0.188011	           -0.232311	            0.006130	           -0.833667	           -0.337887	           -0.085825	           -0.132111
            1.254500	            0.366969	            1.261144	            0.187924	           -0.233013	            0.005581	           -0.255695	            0.216849	           -0.203379	            0.070577	            0.514664	            0.186176	           -0.046490	           -0.232311	            0.006130	           -0.833667	           -0.262779	           -0.085284	           -0.207544
            1.255000	            0.137703	            2.162232	            0.238214	           -0.233013	            0.005581	           -0.255695	            0.064096	           -0.111079	            0.061546	            0.564837	           -0.734396	           -0.049795	           -0.232311	            0.006130	           -0.833667	           -0.281744	           -0.028838	           -0.150783
            1.255500	            0.366136	            2.704253	           -0.035172	           -0.233013	            0.005581	           -0.255695	            0.206991	           -0.046413	            0.108819	            0.607199	            0.553472	            0.330209	           -0.232311	            0.006130	           -0.833667	           -0.225259	           -0.075562	           -0.245227
            1.256000	            0.183822	            2.522182	            0.377214	           -0.233013	            0.005581	           -0.255695	            0.151839	            0.027615	            0.063865	            0.470534	           -0.551088	            0.091686	           -0.232311	            0.006130	           -0.833667	           -0.206534	           -0.047472	           -0.150882
            1.256500	            0.229243	            2.342712	            0.192903	           -0.233013	            0.005581	           -0.255695	            0.159826	            0.036794	            0.084644	            0.378184	           -0.919890	            0.137340	           -0.232311	            0.006130	           -0.833667	           -0.319128	           -0.076371	           -0.113235
            1.257000	            0.596540	            1.801199	            0.373098	           -0.233013	            0.005581	           -0.255695	            0.039397	           -0.027113	           -0.050059	            0.562884	           -0.182286	            0.046032	           -0.232311	            0.006130	           -0.833667	           -0.281257	           -0.170426	           -0.207840
            1.257500	            0.045969	            1.801879	            0.191040	           -0.233013	            0.005581	           -0.255695	            0.066146	           -0.175584	            0.000974	            0.514081	            0.369655	            0.141879	           -0.232311	            0.006130	           -0.833667	           -0.243866	           -0.113776	           -0.151103
            1.258000	            0.275313	            2.342327	            0.284501	           -0.233013	            0.005581	           -0.255695	            0.043335	           -0.222019	            0.085778	            0.561013	            0.369155	            0.329572	           -0.232311	            0.006130	           -0.833667	           -0.262687	           -0.095208	           -0.075626
            1.258500	            0.274891	            2.162848	            0.100305	           -0.233013	            0.005581	           -0.255695	            0.088944	           -0.157555	            0.142342	            0.327387	            0.184496	            0.235158	           -0.232311	            0.006130	           -0.833667	           -0.281531	           -0.085621	           -0.132135
            1.259000	            0.320896	            2.522995	            0.193449	           -0.233013	            0.005581	           -0.255695	            0.140814	            0.000101	            0.032042	            0.467149	            0.370156	           -0.045813	           -0.232311	            0.006130	           -0.833667	           -0.262703	           -0.095073	           -0.113327
            1.259500	            0.504300	            2.342765	            0.192221	           -0.233013	            0.005581	           -0.255695	            0.084575	            0.064959	            0.021487	            0.558999	            0.921767	            0.284615	           -0.232311	            0.006130	           -0.833667	           -0.356596	           -0.104865	           -0.113320
            1.260000	            0.183106	            2.703627	            0.102851	           -0.233013	            0.005581	           -0.255695	            0.163263	            0.055661	           -0.011242	            0.420464	            0.368647	            0.329632	           -0.232311	            0.006130	           -0.833667	           -0.206279	           -0.113775	           -0.113418
            1.260500	            0.229893	            2.521798	            0.468812	           -0.233013	            0.005581	           -0.255695	            0.091535	           -0.036914	            0.028096	            0.560267	            0.553973	            0.142516	           -0.232311	            0.006130	           -0.833667	           -0.262763	           -0.076235	           -0.094409
            1.261000	            0.321321	            1.441008	            0.280523	           -0.233013	            0.005581	           -0.255695	            0.118770	           -0.203094	           -0.006332	            0.653302	            0.738459	            0.143134	           -0.232311	            0.006130	           -0.833667	           -0.244012	           -0.066714	           -0.094383
            1.261500	            0.183939	            1.260519	            0.325947	           -0.233013	            0.005581	           -0.255695	            0.060699	           -0.231058	            0.025431	            0.562363	            0.000691	            0.375186	           -0.232311	            0.006130	           -0.833667	           -0.300316	           -0.085689	           -0.132127
            1.262000	            0.138012	            2.341907	            0.376554	           -0.233013	            0.005581	           -0.255695	            0.114571	           -0.111306	            0.117808	            0.233064	            0.367971	            0.329711	           -0.232311	            0.006130	           -0.833667	           -0.225302	           -0.056858	           -0.188609
            1.262500	            0.367131	            1.621282	            0.281182	           -0.233013	            0.005581	           -0.255695	            0.137484	            0.018611	            0.034117	            0.700131	            0.738796	            0.096186	           -0.232311	            0.006130	           -0.833667	           -0.262541	           -0.142269	           -0.132346
            1.263000	            0.000045	            1.621801	            0.144524	           -0.233013	            0.005581	           -0.255695	            0.143343	            0.101549	            0.037618	            0.745775	            1.106258	            0.379048	           -0.232311	            0.006130	           -0.833667	           -0.225157	           -0.094736	           -0.169893
            1.263500	            0.321321	            1.441008	            0.280523	           -0.233013	            0.005581	           -0.255695	            0.081466	            0.018257	            0.107498	            0.419779	            0.552963	            0.283360	           -0.232311	            0.006130	           -0.833667	           -0.206245	           -0.123228	           -0.113452
            1.264000	            0.000582	            1.801084	            0.374577	           -0.233013	            0.005581	           -0.255695	            0.114617	           -0.073912	           -0.000666	            0.515452	            0.001024	            0.234421	           -0.232311	            0.006130	           -0.833667	           -0.281429	           -0.113979	           -0.132236
